<?xml version="1.0" encoding="iso-8859-1"?>
<!-- Generator: Adobe Illustrator 19.0.0, SVG Export Plug-In . SVG Version: 6.00 Build 0)  -->
<svg version="1.1" id="Layer_1" xmlns="http://www.w3.org/2000/svg" xmlns:xlink="http://www.w3.org/1999/xlink" x="0px" y="0px"
	 viewBox="0 0 511.98 511.98" style="enable-background:new 0 0 511.98 511.98;" xml:space="preserve">
<path style="fill:#ED5564;" d="M245.326,159.541H202.64c-5.89,0-10.663,4.78-10.663,10.671v36.015
	c0,5.89,4.773,10.671,10.663,10.671h42.686c5.891,0,10.664-4.781,10.664-10.671v-36.015
	C255.99,164.321,251.217,159.541,245.326,159.541z"/>
<path style="fill:#5D9CEC;" d="M74.427,277.552c0,0,39.506-74.669,149.564-74.669c110.059,0,149.354,74.7,149.354,74.7
	c127.979,0,127.979,0,127.979,117.276H53.334c-19.702,0.156-42.67-21.093-42.67-21.093v-74.903l21.335-21.312L74.427,277.552
	L74.427,277.552z"/>
<path style="fill:#4FC2E9;" d="M366.251,266.928c-15.607-20.641-58.356-64.045-142.26-64.045
	c-83.942,0-126.839,43.42-142.471,64.045H366.251z"/>
<rect x="191.99" y="207.4" style="fill:#3BAFDA;" width="21.335" height="59.53"/>
<path style="fill:#5D9CEC;" d="M53.131,405.546c-23.163,0-47.061-21.498-49.709-23.936C1.242,379.579,0,376.735,0,373.766v-74.903
	c0-2.812,1.125-5.531,3.125-7.53l21.335-21.327c2-2,4.711-3.125,7.539-3.125h36.467c4.977-7.5,15.484-21.312,32.858-35.046
	c22.89-18.078,62.755-39.624,122.667-39.624c59.92,0,99.73,21.577,122.574,39.655c17.327,13.733,27.795,27.546,32.747,35.062
	c62.701,0.016,94.731,0.516,113.215,17.437c19.453,17.843,19.453,48.811,19.453,110.495c0,5.905-4.781,10.655-10.656,10.655
	L53.131,405.546z M21.335,368.861c7.297,5.843,21.289,15.343,31.788,15.343h0.125c0.031,0,0.055,0,0.086,0h437.303
	c-0.047-46.998-0.844-73.403-12.53-84.091c-12.937-11.874-45.562-11.874-104.762-11.874c-3.953,0-7.609-2.188-9.452-5.688
	c-0.062-0.156-9.515-17.53-31.405-34.608c-29.249-22.827-65.748-34.39-108.496-34.39c-42.756,0-79.301,11.562-108.613,34.374
	c-21.945,17.078-31.452,34.468-31.545,34.624c-1.844,3.5-5.453,5.656-9.406,5.656H36.42L21.335,303.3
	C21.335,303.3,21.335,368.861,21.335,368.861z"/>
<rect x="68.47" y="266.93" style="fill:#F5F7FA;" width="310.84" height="138.6"/>
<g>
	<path style="fill:#434A54;" d="M117.331,331.112c-29.413,0-53.334,23.905-53.334,53.311c0,29.436,23.921,53.342,53.334,53.342
		c29.405,0,53.326-23.906,53.326-53.342C170.657,355.017,146.736,331.112,117.331,331.112z"/>
	<path style="fill:#434A54;" d="M394.64,331.112c-29.405,0-53.31,23.905-53.31,53.311c0,29.436,23.904,53.342,53.31,53.342
		c29.421,0,53.342-23.906,53.342-53.342C447.982,355.017,424.061,331.112,394.64,331.112z"/>
</g>
<g>
	<path style="fill:#F5F7FA;" d="M106.659,384.423c0,5.905,4.781,10.687,10.672,10.687c5.89,0,10.664-4.781,10.664-10.687
		c0-5.875-4.773-10.656-10.664-10.656C111.441,373.766,106.659,378.548,106.659,384.423z"/>
	<path style="fill:#F5F7FA;" d="M383.984,384.423c0,5.905,4.781,10.687,10.656,10.687c5.906,0,10.688-4.781,10.688-10.687
		c0-5.875-4.781-10.656-10.688-10.656C388.765,373.766,383.984,378.548,383.984,384.423z"/>
	<path style="fill:#F5F7FA;" d="M509.043,319.863c-1.312-8.156-3.219-15.062-6-21h-33.874c-5.89,0-10.655,4.781-10.655,10.688
		c0,5.875,4.766,10.656,10.655,10.656h37.249C507.324,320.207,508.199,320.082,509.043,319.863z"/>
</g>
<path style="fill:#ED5564;" d="M31.999,266.881c-2.828,0-5.539,1.125-7.539,3.125L3.125,291.333c-2,1.999-3.125,4.718-3.125,7.53
	h31.999c5.89,0,10.664-4.781,10.664-10.655v-21.327H31.999z"/>
<g>
	<path style="fill:#DA4453;" d="M223.889,138.213c-5.891,0-10.671-4.781-10.671-10.671V84.887c0-5.891,4.781-10.672,10.671-10.672
		s10.664,4.781,10.664,10.672v42.654C234.553,133.431,229.78,138.213,223.889,138.213z"/>
	<path style="fill:#DA4453;" d="M181.321,154.213c-1.812,0-3.641-0.453-5.328-1.438l-36.944-21.327
		c-5.102-2.938-6.851-9.469-3.906-14.562c2.945-5.109,9.469-6.859,14.57-3.906l36.952,21.327c5.101,2.953,6.851,9.469,3.906,14.578
		C188.594,152.306,185.009,154.213,181.321,154.213z"/>
	<path style="fill:#DA4453;" d="M266.669,154.213c-3.688,0-7.273-1.906-9.249-5.328c-2.945-5.109-1.195-11.625,3.905-14.578
		l36.945-21.327c5.108-2.953,11.624-1.203,14.577,3.906c2.952,5.094,1.202,11.625-3.906,14.562l-36.952,21.343
		C270.317,153.76,268.481,154.213,266.669,154.213z"/>
</g>
<path style="fill:#FFCE54;" d="M287.473,324.238c-1.266-3.859-4.594-6.688-8.609-7.25l-16.562-2.406l-7.405-15.016
	c-1.797-3.641-5.508-5.953-9.57-5.953c-4.054,0-7.765,2.312-9.562,5.953l-7.406,15.016l-16.562,2.406
	c-4.016,0.562-7.359,3.391-8.609,7.25c-1.257,3.858-0.211,8.093,2.695,10.937l11.984,11.688l-2.828,16.483
	c-0.688,4,0.96,8.047,4.242,10.437c1.859,1.344,4.062,2.031,6.273,2.031c1.695,0,3.398-0.406,4.96-1.234l14.812-7.78l14.812,7.78
	c1.57,0.844,3.281,1.234,5,1.234c5.883-0.016,10.648-4.78,10.648-10.671c0-0.812-0.094-1.594-0.266-2.359l-2.734-15.921
	l11.984-11.688C287.677,332.331,288.723,328.096,287.473,324.238z"/>
<path style="fill:#F5F7FA;" d="M95.277,266.928c4.945-5.703,11.585-12.375,20.101-19c29.312-22.812,65.857-34.374,108.621-34.374
	c42.748,0,79.239,11.562,108.488,34.39c8.5,6.625,15.109,13.297,20.031,18.984h26.794c-4.952-7.516-15.42-21.328-32.747-35.062
	c-22.844-18.078-62.654-39.655-122.566-39.655c-59.919,0-99.777,21.546-122.675,39.624c-17.374,13.733-27.881,27.546-32.85,35.046
	v0.047H95.277z"/>
<g>
</g>
<g>
</g>
<g>
</g>
<g>
</g>
<g>
</g>
<g>
</g>
<g>
</g>
<g>
</g>
<g>
</g>
<g>
</g>
<g>
</g>
<g>
</g>
<g>
</g>
<g>
</g>
<g>
</g>
</svg>
